<svg xmlns="http://www.w3.org/2000/svg" width="1366" height="1392" viewBox="0 0 1366 1392">
    <g fill="none" fill-rule="evenodd" transform="translate(-59 28)">
        <g fill="#FFF" transform="translate(.4 944.67)">
            <g transform="translate(0 89.484)">
                <ellipse cx="169.919" cy="2.091" rx="2.072" ry="2.091"/>
                <ellipse cx="169.919" cy="32.412" rx="2.072" ry="2.091"/>
                <ellipse cx="169.919" cy="62.732" rx="2.072" ry="2.091"/>
                <ellipse cx="85.996" cy="2.091" rx="2.072" ry="2.091"/>
                <ellipse cx="253.843" cy="2.091" rx="2.072" ry="2.091"/>
                <ellipse cx="85.996" cy="32.412" rx="2.072" ry="2.091"/>
                <ellipse cx="253.843" cy="32.412" rx="2.072" ry="2.091"/>
                <ellipse cx="85.996" cy="62.732" rx="2.072" ry="2.091"/>
                <ellipse cx="253.843" cy="62.732" rx="2.072" ry="2.091"/>
                <ellipse cx="198.93" cy="2.091" rx="2.072" ry="2.091"/>
                <ellipse cx="198.93" cy="32.412" rx="2.072" ry="2.091"/>
                <ellipse cx="198.93" cy="62.732" rx="2.072" ry="2.091"/>
                <ellipse cx="113.97" cy="2.091" rx="2.072" ry="2.091"/>
                <ellipse cx="282.853" cy="2.091" rx="2.072" ry="2.091"/>
                <ellipse cx="113.97" cy="32.412" rx="2.072" ry="2.091"/>
                <ellipse cx="282.853" cy="32.412" rx="2.072" ry="2.091"/>
                <ellipse cx="113.97" cy="62.732" rx="2.072" ry="2.091"/>
                <ellipse cx="282.853" cy="62.732" rx="2.072" ry="2.091"/>
                <ellipse cx="59.057" cy="2.091" rx="2.072" ry="2.091"/>
                <ellipse cx="226.904" cy="2.091" rx="2.072" ry="2.091"/>
                <ellipse cx="59.057" cy="32.412" rx="2.072" ry="2.091"/>
                <ellipse cx="226.904" cy="32.412" rx="2.072" ry="2.091"/>
                <ellipse cx="59.057" cy="62.732" rx="2.072" ry="2.091"/>
                <ellipse cx="226.904" cy="62.732" rx="2.072" ry="2.091"/>
                <ellipse cx="142.981" cy="2.091" rx="2.072" ry="2.091"/>
                <ellipse cx="310.828" cy="2.091" rx="2.072" ry="2.091"/>
                <ellipse cx="142.981" cy="32.412" rx="2.072" ry="2.091"/>
                <ellipse cx="310.828" cy="32.412" rx="2.072" ry="2.091"/>
                <ellipse cx="142.981" cy="62.732" rx="2.072" ry="2.091"/>
                <ellipse cx="310.828" cy="62.732" rx="2.072" ry="2.091"/>
            </g>
            <ellipse cx="169.919" cy="2.091" rx="2.072" ry="2.091"/>
            <ellipse cx="169.919" cy="32.412" rx="2.072" ry="2.091"/>
            <ellipse cx="169.919" cy="62.732" rx="2.072" ry="2.091"/>
            <ellipse cx="85.996" cy="2.091" rx="2.072" ry="2.091"/>
            <ellipse cx="253.843" cy="2.091" rx="2.072" ry="2.091"/>
            <ellipse cx="85.996" cy="32.412" rx="2.072" ry="2.091"/>
            <ellipse cx="253.843" cy="32.412" rx="2.072" ry="2.091"/>
            <ellipse cx="85.996" cy="62.732" rx="2.072" ry="2.091"/>
            <ellipse cx="253.843" cy="62.732" rx="2.072" ry="2.091"/>
            <ellipse cx="198.93" cy="2.091" rx="2.072" ry="2.091"/>
            <ellipse cx="198.93" cy="32.412" rx="2.072" ry="2.091"/>
            <ellipse cx="198.93" cy="62.732" rx="2.072" ry="2.091"/>
            <ellipse cx="113.97" cy="2.091" rx="2.072" ry="2.091"/>
            <ellipse cx="282.853" cy="2.091" rx="2.072" ry="2.091"/>
            <ellipse cx="113.97" cy="32.412" rx="2.072" ry="2.091"/>
            <ellipse cx="282.853" cy="32.412" rx="2.072" ry="2.091"/>
            <ellipse cx="113.97" cy="62.732" rx="2.072" ry="2.091"/>
            <ellipse cx="282.853" cy="62.732" rx="2.072" ry="2.091"/>
            <ellipse cx="59.057" cy="2.091" rx="2.072" ry="2.091"/>
            <ellipse cx="226.904" cy="2.091" rx="2.072" ry="2.091"/>
            <ellipse cx="59.057" cy="32.412" rx="2.072" ry="2.091"/>
            <ellipse cx="226.904" cy="32.412" rx="2.072" ry="2.091"/>
            <ellipse cx="59.057" cy="62.732" rx="2.072" ry="2.091"/>
            <ellipse cx="226.904" cy="62.732" rx="2.072" ry="2.091"/>
            <ellipse cx="142.981" cy="2.091" rx="2.072" ry="2.091"/>
            <ellipse cx="310.828" cy="2.091" rx="2.072" ry="2.091"/>
            <ellipse cx="142.981" cy="32.412" rx="2.072" ry="2.091"/>
            <ellipse cx="310.828" cy="32.412" rx="2.072" ry="2.091"/>
            <ellipse cx="142.981" cy="62.732" rx="2.072" ry="2.091"/>
            <ellipse cx="310.828" cy="62.732" rx="2.072" ry="2.091"/>
        </g>
        <g opacity=".699">
            <g fill="#9CA2AF" transform="rotate(-90 1228.676 -24.328) translate(0 88.579)">
                <ellipse cx="2.04" cy="2.046" rx="2.04" ry="2.046"/>
                <ellipse cx="167.258" cy="2.046" rx="2.04" ry="2.046"/>
                <ellipse cx="2.04" cy="31.707" rx="2.04" ry="2.046"/>
                <ellipse cx="167.258" cy="31.707" rx="2.04" ry="2.046"/>
                <ellipse cx="2.04" cy="61.369" rx="2.04" ry="2.046"/>
                <ellipse cx="167.258" cy="61.369" rx="2.04" ry="2.046"/>
                <ellipse cx="84.649" cy="2.046" rx="2.04" ry="2.046"/>
                <ellipse cx="249.868" cy="2.046" rx="2.04" ry="2.046"/>
                <ellipse cx="84.649" cy="31.707" rx="2.04" ry="2.046"/>
                <ellipse cx="249.868" cy="31.707" rx="2.04" ry="2.046"/>
                <ellipse cx="84.649" cy="61.369" rx="2.04" ry="2.046"/>
                <ellipse cx="249.868" cy="61.369" rx="2.04" ry="2.046"/>
                <ellipse cx="29.576" cy="2.046" rx="2.04" ry="2.046"/>
                <ellipse cx="195.815" cy="2.046" rx="2.04" ry="2.046"/>
                <ellipse cx="29.576" cy="31.707" rx="2.04" ry="2.046"/>
                <ellipse cx="195.815" cy="31.707" rx="2.04" ry="2.046"/>
                <ellipse cx="29.576" cy="61.369" rx="2.04" ry="2.046"/>
                <ellipse cx="195.815" cy="61.369" rx="2.04" ry="2.046"/>
                <ellipse cx="112.185" cy="2.046" rx="2.04" ry="2.046"/>
                <ellipse cx="278.424" cy="2.046" rx="2.04" ry="2.046"/>
                <ellipse cx="112.185" cy="31.707" rx="2.04" ry="2.046"/>
                <ellipse cx="278.424" cy="31.707" rx="2.04" ry="2.046"/>
                <ellipse cx="112.185" cy="61.369" rx="2.04" ry="2.046"/>
                <ellipse cx="278.424" cy="61.369" rx="2.04" ry="2.046"/>
                <ellipse cx="58.132" cy="2.046" rx="2.04" ry="2.046"/>
                <ellipse cx="223.351" cy="2.046" rx="2.04" ry="2.046"/>
                <ellipse cx="58.132" cy="31.707" rx="2.04" ry="2.046"/>
                <ellipse cx="223.351" cy="31.707" rx="2.04" ry="2.046"/>
                <ellipse cx="58.132" cy="61.369" rx="2.04" ry="2.046"/>
                <ellipse cx="223.351" cy="61.369" rx="2.04" ry="2.046"/>
                <ellipse cx="140.742" cy="2.046" rx="2.04" ry="2.046"/>
                <ellipse cx="305.96" cy="2.046" rx="2.04" ry="2.046"/>
                <ellipse cx="140.742" cy="31.707" rx="2.04" ry="2.046"/>
                <ellipse cx="305.96" cy="31.707" rx="2.04" ry="2.046"/>
                <ellipse cx="140.742" cy="61.369" rx="2.04" ry="2.046"/>
                <ellipse cx="305.96" cy="61.369" rx="2.04" ry="2.046"/>
            </g>
            <g fill="#DEE1E7" transform="rotate(-90 1228.676 -24.328)">
                <ellipse cx="4.015" cy="4.026" rx="4.015" ry="4.026"/>
                <ellipse cx="169.233" cy="4.026" rx="4.015" ry="4.026"/>
                <ellipse cx="4.015" cy="33.688" rx="4.015" ry="4.026"/>
                <ellipse cx="169.233" cy="33.688" rx="4.015" ry="4.026"/>
                <ellipse cx="4.015" cy="63.349" rx="4.015" ry="4.026"/>
                <ellipse cx="169.233" cy="63.349" rx="4.015" ry="4.026"/>
                <ellipse cx="86.624" cy="4.026" rx="4.015" ry="4.026"/>
                <ellipse cx="251.843" cy="4.026" rx="4.015" ry="4.026"/>
                <ellipse cx="86.624" cy="33.688" rx="4.015" ry="4.026"/>
                <ellipse cx="251.843" cy="33.688" rx="4.015" ry="4.026"/>
                <ellipse cx="86.624" cy="63.349" rx="4.015" ry="4.026"/>
                <ellipse cx="251.843" cy="63.349" rx="4.015" ry="4.026"/>
                <ellipse cx="31.551" cy="4.026" rx="4.015" ry="4.026"/>
                <ellipse cx="197.79" cy="4.026" rx="4.015" ry="4.026"/>
                <ellipse cx="31.551" cy="33.688" rx="4.015" ry="4.026"/>
                <ellipse cx="197.79" cy="33.688" rx="4.015" ry="4.026"/>
                <ellipse cx="31.551" cy="63.349" rx="4.015" ry="4.026"/>
                <ellipse cx="197.79" cy="63.349" rx="4.015" ry="4.026"/>
                <ellipse cx="114.16" cy="4.026" rx="4.015" ry="4.026"/>
                <ellipse cx="280.399" cy="4.026" rx="4.015" ry="4.026"/>
                <ellipse cx="114.16" cy="33.688" rx="4.015" ry="4.026"/>
                <ellipse cx="280.399" cy="33.688" rx="4.015" ry="4.026"/>
                <ellipse cx="114.16" cy="63.349" rx="4.015" ry="4.026"/>
                <ellipse cx="280.399" cy="63.349" rx="4.015" ry="4.026"/>
                <ellipse cx="60.107" cy="4.026" rx="4.015" ry="4.026"/>
                <ellipse cx="225.326" cy="4.026" rx="4.015" ry="4.026"/>
                <ellipse cx="60.107" cy="33.688" rx="4.015" ry="4.026"/>
                <ellipse cx="225.326" cy="33.688" rx="4.015" ry="4.026"/>
                <ellipse cx="60.107" cy="63.349" rx="4.015" ry="4.026"/>
                <ellipse cx="225.326" cy="63.349" rx="4.015" ry="4.026"/>
                <ellipse cx="142.717" cy="4.026" rx="4.015" ry="4.026"/>
                <ellipse cx="307.935" cy="4.026" rx="4.015" ry="4.026"/>
                <ellipse cx="142.717" cy="33.688" rx="4.015" ry="4.026"/>
                <ellipse cx="307.935" cy="33.688" rx="4.015" ry="4.026"/>
                <ellipse cx="142.717" cy="63.349" rx="4.015" ry="4.026"/>
                <ellipse cx="307.935" cy="63.349" rx="4.015" ry="4.026"/>
            </g>
        </g>
        <g stroke="#DEE1E7" stroke-linecap="square" stroke-width="2">
            <path d="M.681 27.178L36.159 27.178M.681 54.355L36.159 54.355M.681 80.526L36.159 80.526M.681 107.703L36.159 107.703M.681 133.874L36.159 133.874" transform="rotate(-90 601.776 563.716)"/>
        </g>
        <ellipse cx="1520.5" cy="375.956" stroke="#DEE1E7" stroke-width="3" opacity=".448" rx="372" ry="374.456"/>
        <g fill="#9CA2AF" transform="rotate(-90 255 83.707)">
            <ellipse cx="2.04" cy="2.046" rx="2.04" ry="2.046"/>
            <ellipse cx="167.258" cy="2.046" rx="2.04" ry="2.046"/>
            <ellipse cx="2.04" cy="31.707" rx="2.04" ry="2.046"/>
            <ellipse cx="167.258" cy="31.707" rx="2.04" ry="2.046"/>
            <ellipse cx="2.04" cy="61.369" rx="2.04" ry="2.046"/>
            <ellipse cx="167.258" cy="61.369" rx="2.04" ry="2.046"/>
            <ellipse cx="84.649" cy="2.046" rx="2.04" ry="2.046"/>
            <ellipse cx="249.868" cy="2.046" rx="2.04" ry="2.046"/>
            <ellipse cx="84.649" cy="31.707" rx="2.04" ry="2.046"/>
            <ellipse cx="249.868" cy="31.707" rx="2.04" ry="2.046"/>
            <ellipse cx="84.649" cy="61.369" rx="2.04" ry="2.046"/>
            <ellipse cx="249.868" cy="61.369" rx="2.04" ry="2.046"/>
            <ellipse cx="29.576" cy="2.046" rx="2.04" ry="2.046"/>
            <ellipse cx="195.815" cy="2.046" rx="2.04" ry="2.046"/>
            <ellipse cx="29.576" cy="31.707" rx="2.04" ry="2.046"/>
            <ellipse cx="195.815" cy="31.707" rx="2.04" ry="2.046"/>
            <ellipse cx="29.576" cy="61.369" rx="2.04" ry="2.046"/>
            <ellipse cx="195.815" cy="61.369" rx="2.04" ry="2.046"/>
            <ellipse cx="112.185" cy="2.046" rx="2.04" ry="2.046"/>
            <ellipse cx="278.424" cy="2.046" rx="2.04" ry="2.046"/>
            <ellipse cx="112.185" cy="31.707" rx="2.04" ry="2.046"/>
            <ellipse cx="278.424" cy="31.707" rx="2.04" ry="2.046"/>
            <ellipse cx="112.185" cy="61.369" rx="2.04" ry="2.046"/>
            <ellipse cx="278.424" cy="61.369" rx="2.04" ry="2.046"/>
            <ellipse cx="58.132" cy="2.046" rx="2.04" ry="2.046"/>
            <ellipse cx="223.351" cy="2.046" rx="2.04" ry="2.046"/>
            <ellipse cx="58.132" cy="31.707" rx="2.04" ry="2.046"/>
            <ellipse cx="223.351" cy="31.707" rx="2.04" ry="2.046"/>
            <ellipse cx="58.132" cy="61.369" rx="2.04" ry="2.046"/>
            <ellipse cx="223.351" cy="61.369" rx="2.04" ry="2.046"/>
            <ellipse cx="140.742" cy="2.046" rx="2.04" ry="2.046"/>
            <ellipse cx="305.96" cy="2.046" rx="2.04" ry="2.046"/>
            <ellipse cx="140.742" cy="31.707" rx="2.04" ry="2.046"/>
            <ellipse cx="305.96" cy="31.707" rx="2.04" ry="2.046"/>
            <ellipse cx="140.742" cy="61.369" rx="2.04" ry="2.046"/>
            <ellipse cx="305.96" cy="61.369" rx="2.04" ry="2.046"/>
        </g>
        <g fill="#DEE1E7" transform="rotate(-90 210.987 127.707)">
            <ellipse cx="4.015" cy="4.026" rx="4.015" ry="4.026"/>
            <ellipse cx="169.233" cy="4.026" rx="4.015" ry="4.026"/>
            <ellipse cx="4.015" cy="33.688" rx="4.015" ry="4.026"/>
            <ellipse cx="169.233" cy="33.688" rx="4.015" ry="4.026"/>
            <ellipse cx="4.015" cy="63.349" rx="4.015" ry="4.026"/>
            <ellipse cx="169.233" cy="63.349" rx="4.015" ry="4.026"/>
            <ellipse cx="86.624" cy="4.026" rx="4.015" ry="4.026"/>
            <ellipse cx="251.843" cy="4.026" rx="4.015" ry="4.026"/>
            <ellipse cx="86.624" cy="33.688" rx="4.015" ry="4.026"/>
            <ellipse cx="251.843" cy="33.688" rx="4.015" ry="4.026"/>
            <ellipse cx="86.624" cy="63.349" rx="4.015" ry="4.026"/>
            <ellipse cx="251.843" cy="63.349" rx="4.015" ry="4.026"/>
            <ellipse cx="31.551" cy="4.026" rx="4.015" ry="4.026"/>
            <ellipse cx="197.79" cy="4.026" rx="4.015" ry="4.026"/>
            <ellipse cx="31.551" cy="33.688" rx="4.015" ry="4.026"/>
            <ellipse cx="197.79" cy="33.688" rx="4.015" ry="4.026"/>
            <ellipse cx="31.551" cy="63.349" rx="4.015" ry="4.026"/>
            <ellipse cx="197.79" cy="63.349" rx="4.015" ry="4.026"/>
            <ellipse cx="114.16" cy="4.026" rx="4.015" ry="4.026"/>
            <ellipse cx="280.399" cy="4.026" rx="4.015" ry="4.026"/>
            <ellipse cx="114.16" cy="33.688" rx="4.015" ry="4.026"/>
            <ellipse cx="280.399" cy="33.688" rx="4.015" ry="4.026"/>
            <ellipse cx="114.16" cy="63.349" rx="4.015" ry="4.026"/>
            <ellipse cx="280.399" cy="63.349" rx="4.015" ry="4.026"/>
            <ellipse cx="60.107" cy="4.026" rx="4.015" ry="4.026"/>
            <ellipse cx="225.326" cy="4.026" rx="4.015" ry="4.026"/>
            <ellipse cx="60.107" cy="33.688" rx="4.015" ry="4.026"/>
            <ellipse cx="225.326" cy="33.688" rx="4.015" ry="4.026"/>
            <ellipse cx="60.107" cy="63.349" rx="4.015" ry="4.026"/>
            <ellipse cx="225.326" cy="63.349" rx="4.015" ry="4.026"/>
            <ellipse cx="142.717" cy="4.026" rx="4.015" ry="4.026"/>
            <ellipse cx="307.935" cy="4.026" rx="4.015" ry="4.026"/>
            <ellipse cx="142.717" cy="33.688" rx="4.015" ry="4.026"/>
            <ellipse cx="307.935" cy="33.688" rx="4.015" ry="4.026"/>
            <ellipse cx="142.717" cy="63.349" rx="4.015" ry="4.026"/>
            <ellipse cx="307.935" cy="63.349" rx="4.015" ry="4.026"/>
        </g>
        <path stroke="#979797" d="M39 944.167c54.124 0 98-44.165 98-98.644 0-54.48-43.876-98.645-98-98.645" opacity=".293"/>
        <path stroke="#DEE1E7" stroke-linecap="square" stroke-width="2" d="M134.681 403.636L170.159 403.636M134.681 429.807L170.159 429.807M134.681 456.985L170.159 456.985M134.681 483.156L170.159 483.156M134.681 510.333L170.159 510.333M134.681 536.504L170.159 536.504"/>
    </g>
</svg>
